# xmcd
#
# Track frame offsets:
#	150
#	16565
#	29660
#	43468
#	56438
#	70008
#	82780
#	98150
#	110908
#	123878
#	137995
#	159555
#	173338
#	186588
#	198675
#	211593
#
# Disc length: 3201
#
# Revision: 1
# Processed by: cddbd v1.5.1PL0 Copyright (c) Steve Scherf et al.
# Submitted via: EasyCDDAExtractor 8.0.2.1
# Normalized: r0:DSETVAR1
#
DISCID=da0c7f10
DTITLE=Various Artist - Woman to Woman
DYEAR=1900
DGENRE=Balade
TTITLE0=Nina Simone - My Baby just Cares for me
TTITLE1=Laura Lee - Dirty Man
TTITLE2=Irma Thomas - I`ve Been loving You Too Long
TTITLE3=Ella Fitzgerald - Saving myself for You
TTITLE4=Etta James - At Last
TTITLE5=Dinah Washington - Mad about the boy
TTITLE6=Peggy Scott - Evry little bit hourts
TTITLE7=Judy Garland - Over the rainbow
TTITLE8=Betty Lavette - Let my down Easy
TTITLE9=Tina Turner - It sho`on me
TTITLE10=Eydie Gorme - Send in the Clowns
TTITLE11=P.P. Arnold - First cut is the deepest
TTITLE12=Billy Holiday - Summertime
TTITLE13=Gladys Knight - Either way is loose
TTITLE14=Sahra Vaughan - Love me or leave me
TTITLE15=Aretha Franklin - Precious Lord Part 1+2
EXTD=
EXTT0=
EXTT1=
EXTT2=
EXTT3=
EXTT4=
EXTT5=
EXTT6=
EXTT7=
EXTT8=
EXTT9=
EXTT10=
EXTT11=
EXTT12=
EXTT13=
EXTT14=
EXTT15=
PLAYORDER=
